<svg width="20" height="20" viewBox="0 0 20 20" fill="none" xmlns="http://www.w3.org/2000/svg">
<path d="M9.16693 9.86678C9.16693 10.2534 9.48033 10.5668 9.86693 10.5668C10.2535 10.5668 10.5669 10.2534 10.5669 9.86678C10.5669 9.48018 10.2535 9.16678 9.86693 9.16678C9.48033 9.16678 9.16693 9.48018 9.16693 9.86678Z" fill="white" stroke="white" stroke-width="1.16667" stroke-linecap="round" stroke-linejoin="round"/>
<path d="M14.9999 9.86678C14.9999 10.2534 15.3133 10.5668 15.6999 10.5668C16.0865 10.5668 16.3999 10.2534 16.3999 9.86678C16.3999 9.48018 16.0865 9.16678 15.6999 9.16678C15.3133 9.16678 14.9999 9.48018 14.9999 9.86678Z" fill="white" stroke="white" stroke-width="1.16667" stroke-linecap="round" stroke-linejoin="round"/>
<path d="M3.33343 9.86678C3.33343 10.2534 3.64683 10.5668 4.03343 10.5668C4.42003 10.5668 4.73343 10.2534 4.73343 9.86678C4.73343 9.48018 4.42003 9.16678 4.03343 9.16678C3.64683 9.16678 3.33343 9.48018 3.33343 9.86678Z" fill="white" stroke="white" stroke-width="1.16667" stroke-linecap="round" stroke-linejoin="round"/>
</svg>
